<svg width="465" height="465" viewBox="0 0 465 465" fill="none" xmlns="http://www.w3.org/2000/svg">
<path d="M434.613 278.946C422.359 316.088 395.96 356.794 357.109 370.046C298.407 390.073 293.163 438.218 186.622 437.889C170.011 437.84 154.592 436.1 140.366 432.922C132.718 431.215 125.413 429.08 118.462 426.565C55.3489 403.798 20.7929 349.656 15.862 291.798C9.36412 215.704 61.1484 177.313 94.8944 154.701C128.64 132.09 167.118 48.0416 271.857 47.5413C287.826 47.4715 303.822 49.0367 319.402 52.621C354.966 60.7864 391.56 80.4726 413.541 110.471C415.192 112.724 416.772 115.035 418.291 117.393C447.939 163.522 451.323 228.31 434.613 278.946Z" fill="#BDFFC7"/>
<path opacity="0.7" d="M434.613 278.946C422.359 316.088 395.96 356.794 357.109 370.046C298.407 390.073 293.163 438.218 186.622 437.889C170.011 437.84 154.592 436.1 140.366 432.922C132.718 431.215 125.413 429.08 118.462 426.565C55.3489 403.798 20.7929 349.656 15.862 291.798C9.36412 215.704 61.1484 177.313 94.8944 154.701C128.64 132.09 167.118 48.0416 271.857 47.5413C287.826 47.4715 303.822 49.0367 319.402 52.621C354.966 60.7864 391.56 80.4726 413.541 110.471C415.192 112.724 416.772 115.035 418.291 117.393C447.939 163.522 451.323 228.31 434.613 278.946Z" fill="white"/>
<path d="M448.898 421.414H19.4766" stroke="#263238" stroke-width="0.93" stroke-miterlimit="10" stroke-linecap="round" stroke-linejoin="round"/>
<path d="M35.5029 362.565C37.5061 363.439 42.4035 363.329 42.4072 363.329C42.4584 363.328 41.3545 360.123 41.2615 359.929C40.1873 357.681 36.7881 353.969 34.0233 354.343C32.0312 354.612 30.9236 356.605 31.3728 358.481C31.8331 360.396 33.7982 361.819 35.5029 362.565Z" fill="#263238"/>
<path d="M37.1952 376.751C39.2728 377.054 43.6438 375.786 43.9907 375.684C44.6808 378.131 45.5875 380.586 46.6422 383.02C47.2429 384.412 47.8921 385.795 48.5607 387.174C48.1618 386.59 47.8009 386.071 47.7433 386.003C46.1121 384.118 41.8545 381.436 39.2868 382.527C37.4361 383.313 36.8948 385.528 37.823 387.218C38.7716 388.944 41.0436 389.798 42.885 390.066C44.7543 390.338 48.5022 389.332 49.4907 389.053C49.7521 389.579 50.0078 390.107 50.2719 390.633C51.5377 393.153 52.8118 395.662 53.9854 398.162C54.3993 399.043 54.775 399.925 55.1544 400.807C54.8001 400.288 54.4969 399.855 54.4439 399.793C52.8136 397.909 48.5561 395.226 45.9874 396.318C44.1367 397.104 43.5945 399.319 44.5236 401.009C45.4731 402.735 47.7442 403.589 49.5856 403.858C51.3693 404.118 54.8373 403.22 56.0128 402.894C56.3737 403.809 56.7373 404.724 57.0451 405.626C57.2423 406.248 57.4748 406.832 57.6366 407.466C57.8115 408.091 57.9835 408.709 58.1546 409.323C58.4411 410.515 58.7433 411.744 58.9926 412.914C59.173 413.727 59.3292 414.504 59.4892 415.287C59.0874 414.406 58.2634 412.696 58.1779 412.561C56.8526 410.452 53.0499 407.155 50.3454 407.844C48.3971 408.341 47.5266 410.448 48.1887 412.26C48.8649 414.11 50.9806 415.298 52.7606 415.842C54.7201 416.441 59.0586 415.895 59.5998 415.822C59.8602 417.118 60.1002 418.381 60.3085 419.577C60.4201 420.21 60.5168 420.805 60.6154 421.402H62.3405C62.2131 420.713 62.0802 420.009 61.9332 419.273C61.6747 417.956 61.3724 416.554 61.0478 415.116C61.3743 414.987 63.2241 414.238 64.8636 413.322C66.2921 414.869 69.9517 416.679 70.425 416.909C69.9275 418.134 69.4309 419.32 68.9445 420.432C68.7985 420.769 68.6571 421.082 68.5139 421.402H70.3311C70.3767 421.292 70.4213 421.188 70.4669 421.075C70.9775 419.833 71.4992 418.496 72.0219 417.118C72.5464 417.228 76.8411 418.1 78.8425 417.649C80.6578 417.238 82.8564 416.211 83.6692 414.417C84.4643 412.66 83.7529 410.493 81.8464 409.853C79.2014 408.964 75.1643 411.969 73.6847 413.974C73.5973 414.092 72.7937 415.482 72.3018 416.366C72.512 415.802 72.7221 415.257 72.9323 414.673C73.3545 413.523 73.7424 412.362 74.1636 411.115C74.3459 410.506 74.5301 409.89 74.7161 409.268C74.9132 408.655 75.0444 407.983 75.2127 407.336C75.5726 405.825 75.8637 404.277 76.1222 402.712C77.1303 403.078 80.7304 404.331 82.5959 404.2C84.4522 404.07 86.781 403.388 87.856 401.737C88.9088 400.121 88.5331 397.871 86.7465 396.949C84.2662 395.671 79.8199 398.028 78.0548 399.786C77.945 399.895 76.8188 401.299 76.2162 402.082C76.364 401.14 76.5165 400.2 76.6356 399.241C76.9788 396.474 77.2401 393.663 77.5135 390.86C77.5963 390.001 77.6902 389.147 77.7804 388.29C78.1375 388.425 82.3848 390.006 84.4736 389.859C86.3299 389.729 88.6586 389.047 89.7337 387.396C90.7865 385.78 90.4107 383.53 88.6242 382.609C86.1439 381.33 81.6985 383.688 79.9324 385.445C79.7994 385.577 78.1831 387.6 77.7972 388.134C77.9962 386.249 78.2119 384.372 78.5002 382.531C78.8936 379.99 79.4209 377.518 80.1082 375.161C80.2747 375.225 84.6996 376.894 86.8386 376.744C88.6949 376.614 91.0245 375.931 92.0987 374.281C93.1514 372.664 92.7757 370.415 90.9892 369.494C88.5089 368.215 84.0635 370.573 82.2974 372.331C82.1588 372.468 80.4207 374.645 80.1333 375.062C80.1752 374.922 80.2021 374.773 80.2449 374.633C81.0112 372.127 82.0677 369.794 83.1642 367.66C83.7984 366.419 84.4755 365.267 85.1581 364.161C85.9505 364.557 89.5914 366.325 91.5314 366.403C93.3914 366.477 95.7806 366.055 97.0305 364.532C98.2544 363.042 98.1279 360.764 96.4539 359.653C94.1289 358.109 89.451 359.964 87.5026 361.517C87.3966 361.602 86.4145 362.579 85.7096 363.302C86.0249 362.807 86.342 362.292 86.6535 361.824C87.8207 360.067 88.9981 358.528 90.0518 357.175C90.6572 356.411 91.2189 355.731 91.7527 355.1C92.732 355.084 96.6808 354.964 98.4069 354.154C100.091 353.362 102.018 351.887 102.425 349.959C102.824 348.072 101.663 346.109 99.6642 345.894C96.89 345.595 93.5932 349.398 92.5795 351.673C92.4921 351.871 91.4756 355.104 91.5267 355.103C91.5267 355.103 91.5742 355.103 91.5863 355.102C91.0608 355.698 90.5056 356.344 89.9113 357.061C88.826 358.394 87.6114 359.91 86.4024 361.649C85.1888 363.385 83.9184 365.303 82.7633 367.446C81.6027 369.592 80.4914 371.908 79.6553 374.444C79.646 374.472 79.6395 374.503 79.6302 374.532C79.6451 373.714 79.6088 371.428 79.5855 371.253C79.2647 368.782 77.1945 364.195 74.4501 363.688C72.4738 363.323 70.7989 364.871 70.6417 366.794C70.4808 368.757 71.9047 370.723 73.2922 371.962C74.8574 373.361 79.2024 374.714 79.5483 374.821C78.7737 377.242 78.1757 379.79 77.7125 382.401C77.4465 383.893 77.2243 385.405 77.0215 386.924C77.0113 386.217 76.9974 385.585 76.9853 385.497C76.6653 383.026 74.5942 378.44 71.8498 377.932C69.8726 377.566 68.1986 379.115 68.0415 381.037C67.8806 383 69.3044 384.966 70.692 386.205C72.1 387.464 75.7818 388.692 76.7593 389.004C76.6877 389.588 76.6095 390.17 76.5398 390.754C76.205 393.554 75.8832 396.35 75.4833 399.083C75.3429 400.046 75.169 400.989 74.9988 401.933C74.9885 401.306 74.9755 400.776 74.9653 400.696C74.6445 398.225 72.5743 393.639 69.8308 393.132C67.8536 392.767 66.1787 394.315 66.0215 396.238C65.8606 398.2 67.2844 400.166 68.6729 401.406C70.0168 402.607 73.4048 403.772 74.5654 404.148C74.3617 405.109 74.1599 406.074 73.9191 406.996C73.7405 407.622 73.6121 408.238 73.3982 408.857C73.1983 409.474 73.0011 410.087 72.8058 410.691C72.3864 411.843 71.9614 413.035 71.5243 414.148C71.2258 414.925 70.9272 415.66 70.6296 416.4C70.7803 415.443 71.0361 413.564 71.0398 413.404C71.0779 411.75 70.4901 409.058 69.3202 407.166C69.3276 406.922 69.3137 406.678 69.2746 406.436C68.9687 404.532 67.1793 403.117 65.2366 403.635C62.5405 404.353 60.8302 409.086 60.7028 411.575C60.6954 411.722 60.7912 413.323 60.8684 414.333C60.7326 413.746 60.608 413.175 60.4601 412.574C60.1774 411.381 59.8593 410.199 59.5236 408.926C59.3394 408.317 59.1534 407.702 58.9656 407.081C58.7926 406.462 58.5303 405.828 58.3137 405.195C57.7798 403.737 57.1688 402.285 56.5206 400.836C57.565 400.586 61.258 399.645 62.7414 398.506C64.2182 397.374 65.7834 395.519 65.7695 393.55C65.7555 391.622 64.2024 389.952 62.2029 390.169C59.4287 390.47 57.021 394.89 56.5178 397.33C56.4862 397.482 56.3225 399.274 56.2509 400.259C55.8547 399.392 55.4632 398.523 55.0335 397.658C53.7939 395.161 52.4621 392.672 51.1424 390.184C50.7379 389.421 50.3445 388.658 49.9474 387.894C50.3203 387.809 54.7341 386.785 56.396 385.51C57.8719 384.377 59.438 382.523 59.4241 380.554C59.4101 378.625 57.8561 376.955 55.8575 377.173C53.0833 377.474 50.6756 381.894 50.1724 384.334C50.1343 384.518 49.9018 387.096 49.8748 387.755C49.0016 386.073 48.146 384.389 47.3703 382.694C46.2971 380.356 45.3736 378.005 44.6464 375.66C44.8203 375.621 49.4322 374.572 51.1341 373.267C52.6109 372.134 54.177 370.281 54.1621 368.311C54.1482 366.382 52.5942 364.713 50.5956 364.931C47.8214 365.232 45.4146 369.651 44.9105 372.092C44.8705 372.283 44.6222 375.057 44.6129 375.563C44.5701 375.424 44.5097 375.284 44.4687 375.145C43.7257 372.631 43.3202 370.103 43.057 367.718C42.9008 366.332 42.8301 364.999 42.7901 363.7C43.6689 363.592 47.681 363.058 49.3419 362.053C50.9341 361.089 52.6946 359.418 52.8964 357.46C53.0945 355.541 51.733 353.711 49.7232 353.707C46.9323 353.702 44.0549 357.83 43.2858 360.201C43.2439 360.33 42.964 361.687 42.7743 362.678C42.765 362.091 42.7445 361.487 42.7473 360.925C42.751 358.815 42.884 356.882 43.017 355.173C43.0998 354.201 43.1946 353.324 43.2914 352.504C44.0986 351.949 47.3257 349.67 48.318 348.042C49.2871 346.452 50.0794 344.16 49.3559 342.328C48.6472 340.534 46.5957 339.537 44.811 340.459C42.3316 341.741 41.6797 346.731 42.0898 349.188C42.1261 349.4 43.0617 352.658 43.1044 352.63C43.1044 352.63 43.1435 352.603 43.1528 352.597C43.0431 353.384 42.9361 354.229 42.8366 355.154C42.6664 356.865 42.4906 358.799 42.4413 360.918C42.3865 363.034 42.3855 365.336 42.6041 367.76C42.8199 370.189 43.1705 372.734 43.8717 375.31C43.8791 375.339 43.8921 375.369 43.8996 375.398C43.4606 374.708 42.1689 372.821 42.0526 372.687C40.4223 370.803 36.1648 368.119 33.5961 369.21C31.7463 369.996 31.2032 372.212 32.1332 373.902C33.0828 375.629 35.3538 376.482 37.1952 376.751Z" fill="#263238"/>
<path d="M85.0412 363.641C85.0849 363.668 85.9321 360.386 85.9619 360.173C86.305 357.704 85.5183 352.734 83.0063 351.52C81.1966 350.646 79.1729 351.698 78.5135 353.51C77.8402 355.361 78.6939 357.632 79.7058 359.194C80.8915 361.028 85.0375 363.638 85.0412 363.641Z" fill="#263238"/>
<path d="M167.585 394.254C168.51 394.657 170.77 394.606 170.772 394.606C170.796 394.605 170.286 393.126 170.243 393.036C169.747 391.998 168.179 390.285 166.902 390.457C165.982 390.582 165.471 391.502 165.679 392.368C165.891 393.253 166.798 393.91 167.585 394.254Z" fill="#263238"/>
<path d="M168.364 400.801C169.323 400.94 171.341 400.355 171.501 400.308C171.82 401.437 172.239 402.57 172.725 403.694C173.002 404.336 173.302 404.975 173.61 405.611C173.426 405.342 173.26 405.102 173.233 405.071C172.48 404.202 170.514 402.963 169.33 403.467C168.475 403.83 168.226 404.852 168.654 405.632C169.092 406.429 170.141 406.822 170.991 406.947C171.853 407.072 173.583 406.608 174.04 406.479C174.161 406.722 174.279 406.966 174.401 407.208C174.985 408.372 175.573 409.53 176.115 410.684C176.306 411.09 176.479 411.497 176.654 411.905C176.491 411.666 176.35 411.465 176.326 411.437C175.574 410.567 173.609 409.329 172.423 409.833C171.568 410.195 171.318 411.218 171.748 411.998C172.186 412.795 173.234 413.189 174.084 413.313C174.907 413.433 176.507 413.019 177.05 412.868C177.217 413.29 177.384 413.713 177.527 414.129C177.618 414.416 177.725 414.685 177.8 414.978C177.881 415.267 177.96 415.552 178.039 415.836C178.171 416.385 178.311 416.953 178.426 417.493C178.509 417.868 178.581 418.227 178.655 418.589C178.469 418.181 178.089 417.393 178.049 417.33C177.437 416.357 175.682 414.835 174.434 415.153C173.535 415.383 173.133 416.356 173.439 417.192C173.752 418.046 174.728 418.594 175.549 418.845C176.454 419.122 178.457 418.87 178.707 418.836C178.827 419.434 178.937 420.017 179.034 420.57C179.085 420.862 179.13 421.136 179.175 421.412H179.972C179.913 421.094 179.852 420.77 179.784 420.429C179.665 419.821 179.524 419.174 179.375 418.511C179.525 418.451 180.379 418.105 181.136 417.682C181.795 418.396 183.484 419.231 183.703 419.337C183.473 419.903 183.244 420.451 183.019 420.964C182.951 421.119 182.886 421.264 182.82 421.412H183.659C183.68 421.362 183.701 421.314 183.722 421.261C183.958 420.689 184.198 420.071 184.44 419.435C184.682 419.486 186.665 419.888 187.588 419.68C188.426 419.49 189.441 419.016 189.817 418.188C190.184 417.377 189.855 416.377 188.975 416.081C187.754 415.671 185.89 417.058 185.207 417.983C185.167 418.038 184.796 418.679 184.569 419.087C184.666 418.827 184.764 418.575 184.861 418.306C185.056 417.775 185.234 417.239 185.429 416.664C185.513 416.382 185.598 416.098 185.684 415.811C185.775 415.528 185.835 415.217 185.913 414.919C186.08 414.221 186.214 413.507 186.333 412.785C186.798 412.954 188.46 413.532 189.321 413.471C190.177 413.41 191.252 413.096 191.749 412.333C192.235 411.588 192.062 410.549 191.237 410.124C190.092 409.533 188.039 410.622 187.225 411.433C187.173 411.483 186.655 412.132 186.376 412.493C186.444 412.058 186.514 411.625 186.569 411.182C186.727 409.905 186.848 408.608 186.974 407.313C187.013 406.917 187.056 406.523 187.097 406.128C187.262 406.19 189.222 406.92 190.187 406.852C191.043 406.792 192.118 406.477 192.615 405.715C193.101 404.969 192.927 403.93 192.102 403.505C190.958 402.914 188.906 404.003 188.09 404.814C188.029 404.876 187.283 405.809 187.105 406.056C187.197 405.186 187.296 404.32 187.429 403.47C187.611 402.297 187.854 401.156 188.171 400.068C188.248 400.097 190.291 400.868 191.279 400.799C192.135 400.738 193.21 400.424 193.707 399.661C194.192 398.915 194.019 397.877 193.194 397.452C192.049 396.861 189.998 397.95 189.182 398.761C189.118 398.825 188.316 399.83 188.183 400.022C188.203 399.958 188.215 399.888 188.235 399.824C188.588 398.667 189.076 397.591 189.582 396.605C189.875 396.032 190.188 395.5 190.503 394.99C190.868 395.172 192.549 395.989 193.444 396.024C194.303 396.058 195.406 395.863 195.982 395.161C196.547 394.473 196.489 393.422 195.716 392.909C194.643 392.196 192.484 393.053 191.584 393.769C191.535 393.808 191.082 394.259 190.757 394.593C190.903 394.365 191.049 394.127 191.193 393.911C191.731 393.1 192.275 392.39 192.762 391.765C193.041 391.411 193.3 391.098 193.547 390.807C193.999 390.799 195.822 390.744 196.619 390.37C197.396 390.004 198.285 389.323 198.473 388.433C198.657 387.562 198.121 386.656 197.199 386.557C195.918 386.419 194.397 388.174 193.929 389.224C193.889 389.315 193.419 390.808 193.444 390.808C193.444 390.808 193.466 390.808 193.471 390.808C193.228 391.083 192.971 391.381 192.698 391.712C192.196 392.327 191.637 393.027 191.078 393.829C190.518 394.63 189.931 395.516 189.398 396.505C188.862 397.495 188.349 398.565 187.963 399.735C187.958 399.748 187.956 399.763 187.951 399.776C187.957 399.398 187.941 398.343 187.931 398.262C187.783 397.121 186.827 395.004 185.56 394.769C184.648 394.601 183.875 395.315 183.802 396.204C183.728 397.11 184.385 398.017 185.026 398.589C185.749 399.234 187.755 399.859 187.914 399.909C187.556 401.027 187.28 402.202 187.067 403.407C186.944 404.096 186.841 404.794 186.748 405.495C186.743 405.169 186.736 404.877 186.731 404.836C186.583 403.695 185.627 401.578 184.36 401.344C183.448 401.174 182.675 401.89 182.603 402.777C182.528 403.683 183.186 404.59 183.825 405.162C184.476 405.743 186.175 406.31 186.627 406.454C186.593 406.723 186.558 406.992 186.525 407.261C186.371 408.554 186.222 409.844 186.038 411.106C185.973 411.55 185.893 411.986 185.815 412.422C185.81 412.133 185.804 411.888 185.799 411.851C185.651 410.71 184.695 408.593 183.428 408.359C182.516 408.19 181.742 408.905 181.67 409.793C181.595 410.699 182.253 411.606 182.894 412.178C183.514 412.732 185.077 413.27 185.614 413.444C185.52 413.888 185.427 414.333 185.315 414.759C185.233 415.048 185.174 415.332 185.074 415.618C184.982 415.903 184.891 416.186 184.801 416.465C184.608 416.996 184.411 417.546 184.21 418.06C184.072 418.419 183.934 418.758 183.797 419.1C183.866 418.658 183.985 417.791 183.986 417.717C184.004 416.954 183.732 415.711 183.192 414.838C183.196 414.725 183.189 414.613 183.171 414.501C183.029 413.622 182.204 412.97 181.307 413.209C180.063 413.54 179.273 415.725 179.215 416.873C179.211 416.941 179.255 417.68 179.291 418.146C179.228 417.875 179.171 417.611 179.103 417.334C178.973 416.784 178.826 416.239 178.67 415.651C178.586 415.37 178.499 415.086 178.413 414.799C178.333 414.513 178.212 414.22 178.113 413.928C177.866 413.255 177.584 412.586 177.285 411.917C177.767 411.802 179.471 411.367 180.156 410.842C180.837 410.319 181.56 409.464 181.554 408.554C181.547 407.663 180.83 406.893 179.907 406.993C178.627 407.133 177.515 409.172 177.283 410.299C177.269 410.369 177.193 411.196 177.159 411.651C176.976 411.25 176.796 410.849 176.598 410.45C176.026 409.297 175.41 408.148 174.802 407C174.615 406.648 174.433 406.296 174.25 405.943C174.422 405.904 176.46 405.431 177.227 404.843C177.909 404.321 178.631 403.465 178.625 402.555C178.618 401.665 177.901 400.894 176.979 400.995C175.698 401.133 174.587 403.174 174.354 404.3C174.337 404.385 174.23 405.575 174.217 405.879C173.813 405.103 173.419 404.325 173.061 403.543C172.565 402.464 172.139 401.379 171.803 400.297C171.883 400.278 174.012 399.794 174.798 399.192C175.48 398.669 176.202 397.813 176.196 396.904C176.189 396.014 175.472 395.243 174.55 395.343C173.269 395.483 172.158 397.522 171.925 398.649C171.907 398.737 171.792 400.018 171.788 400.251C171.768 400.187 171.74 400.123 171.721 400.057C171.377 398.897 171.191 397.731 171.069 396.629C170.997 395.99 170.964 395.375 170.945 394.775C171.35 394.726 173.203 394.479 173.969 394.014C174.704 393.57 175.517 392.799 175.61 391.894C175.701 391.009 175.073 390.163 174.145 390.162C172.857 390.16 171.528 392.065 171.174 393.16C171.154 393.219 171.025 393.846 170.938 394.304C170.933 394.033 170.924 393.754 170.925 393.494C170.927 392.521 170.989 391.629 171.05 390.839C171.088 390.39 171.132 389.986 171.177 389.607C171.549 389.35 173.038 388.3 173.497 387.548C173.944 386.814 174.31 385.756 173.976 384.911C173.648 384.082 172.702 383.623 171.878 384.048C170.734 384.64 170.433 386.944 170.621 388.078C170.638 388.176 171.07 389.68 171.09 389.667C171.09 389.667 171.109 389.655 171.112 389.651C171.062 390.013 171.012 390.404 170.966 390.831C170.888 391.621 170.806 392.513 170.784 393.492C170.759 394.469 170.758 395.531 170.859 396.65C170.959 397.772 171.121 398.946 171.444 400.135C171.448 400.148 171.454 400.162 171.457 400.175C171.255 399.857 170.659 398.985 170.605 398.924C169.852 398.054 167.887 396.816 166.701 397.32C165.848 397.682 165.597 398.705 166.026 399.486C166.466 400.283 167.514 400.677 168.364 400.801Z" fill="#263238"/>
<path d="M190.452 394.746C190.472 394.758 190.863 393.243 190.877 393.146C191.035 392.006 190.673 389.712 189.513 389.152C188.678 388.749 187.743 389.234 187.439 390.071C187.128 390.926 187.522 391.974 187.989 392.695C188.536 393.541 190.45 394.745 190.452 394.746Z" fill="#263238"/>
<path d="M208.615 54.1992C202.985 57.4905 200.86 63.8647 199.841 66.9207C198.433 71.1457 193.503 64.1037 183.645 67.6247C173.787 71.1457 172.378 78.8916 170.266 81.0037C168.154 83.1157 154.07 88.7496 154.07 88.7496H295.388" stroke="#263238" stroke-width="0.93" stroke-miterlimit="10" stroke-linecap="round" stroke-linejoin="round"/>
<path d="M302.431 88.7485H319.552C319.552 88.7485 322.369 73.2565 316.031 65.5106C309.693 57.7646 295.61 69.0315 291.385 57.7646C291.385 57.7646 278.71 39.4566 263.218 38.0477C247.726 36.6396 241.389 48.6106 236.459 54.9476C231.53 61.2856 228.713 52.1307 216.742 52.1307" stroke="#263238" stroke-width="0.93" stroke-miterlimit="10" stroke-linecap="round" stroke-linejoin="round"/>
<path d="M234.799 76.1719C231.927 78.8456 231.531 82.4103 231.531 82.4103" stroke="#263238" stroke-width="0.93" stroke-miterlimit="10" stroke-linecap="round" stroke-linejoin="round"/>
<path d="M288.566 64.104C288.566 64.104 278.708 54.246 267.441 54.9501C256.174 55.6541 260.399 69.033 255.47 73.258C250.541 77.483 244.908 71.85 238.57 73.962" stroke="#263238" stroke-width="0.93" stroke-miterlimit="10" stroke-linecap="round" stroke-linejoin="round"/>
<path d="M67.3701 98.1797C63.692 100.33 62.3044 104.494 61.6385 106.491C60.7188 109.251 57.4982 104.651 51.057 106.951C44.6158 109.251 43.696 114.312 42.3159 115.693C40.9358 117.073 31.7344 120.754 31.7344 120.754H124.061" stroke="#263238" stroke-width="0.93" stroke-miterlimit="10" stroke-linecap="round" stroke-linejoin="round"/>
<path d="M128.661 120.753H139.847C139.847 120.753 141.688 110.632 137.547 105.571C133.407 100.51 124.205 107.871 121.445 100.511C121.445 100.511 113.164 88.549 103.043 87.6292C92.9221 86.7094 88.7817 94.5298 85.5611 98.6702C82.3405 102.811 80.501 96.8297 72.6797 96.8297" stroke="#263238" stroke-width="0.93" stroke-miterlimit="10" stroke-linecap="round" stroke-linejoin="round"/>
<path d="M84.479 112.539C82.6032 114.286 82.3438 116.615 82.3438 116.615" stroke="#263238" stroke-width="0.93" stroke-miterlimit="10" stroke-linecap="round" stroke-linejoin="round"/>
<path d="M119.601 104.653C119.601 104.653 113.16 98.2116 105.8 98.672C98.4388 99.1323 101.199 107.873 97.9785 110.634C94.7579 113.394 91.0779 109.714 86.9375 111.094" stroke="#263238" stroke-width="0.93" stroke-miterlimit="10" stroke-linecap="round" stroke-linejoin="round"/>
<path d="M255.365 135.242C252.8 136.741 251.832 139.646 251.368 141.038C250.726 142.963 248.48 139.755 243.989 141.359C239.498 142.963 238.857 146.491 237.894 147.454C236.932 148.417 230.516 150.983 230.516 150.983H294.9" stroke="#263238" stroke-width="0.93" stroke-miterlimit="10" stroke-linecap="round" stroke-linejoin="round"/>
<path d="M298.11 150.983H305.91C305.91 150.983 307.193 143.926 304.306 140.396C301.418 136.867 295.002 142.001 293.077 136.867C293.077 136.867 287.302 128.526 280.245 127.884C273.187 127.242 270.299 132.696 268.053 135.584C265.807 138.471 264.524 134.3 259.07 134.3" stroke="#263238" stroke-width="0.93" stroke-miterlimit="10" stroke-linecap="round" stroke-linejoin="round"/>
<path d="M267.294 145.254C265.985 146.472 265.805 148.096 265.805 148.096" stroke="#263238" stroke-width="0.93" stroke-miterlimit="10" stroke-linecap="round" stroke-linejoin="round"/>
<path d="M291.793 139.754C291.793 139.754 287.302 135.263 282.169 135.583C277.035 135.904 278.96 141.999 276.715 143.924C274.469 145.849 271.903 143.282 269.016 144.245" stroke="#263238" stroke-width="0.93" stroke-miterlimit="10" stroke-linecap="round" stroke-linejoin="round"/>
<path d="M96.3318 337.5V298.713H49.1641V275.714L90.2896 179.625H121.67V277.274H137.847V298.713H121.67V337.5H96.3318ZM71.7733 277.274H96.3318V208.667L71.7733 277.274Z" fill="#263238" stroke="#263238" stroke-width="0.93" stroke-miterlimit="10" stroke-linecap="round" stroke-linejoin="round"/>
<path d="M193.195 339.838C183.967 339.838 176.336 337.889 170.294 333.991C164.251 330.093 159.702 324.702 156.651 317.814C153.596 310.928 152.07 303.001 152.07 294.036V224.063C152.07 214.839 153.532 206.749 156.455 199.798C159.379 192.848 163.862 187.421 169.904 183.523C175.946 179.624 183.709 177.676 193.195 177.676C202.678 177.676 210.445 179.624 216.486 183.523C222.528 187.421 227.012 192.848 229.935 199.798C232.858 206.749 234.32 214.839 234.32 224.063V294.035C234.32 303 232.792 310.928 229.74 317.813C226.685 324.702 222.139 330.092 216.096 333.99C210.055 337.889 202.421 339.838 193.195 339.838ZM193.195 316.645C197.221 316.645 200.212 315.411 202.161 312.941C204.109 310.474 205.407 307.483 206.059 303.975C206.708 300.467 207.033 297.025 207.033 293.645V224.453C207.033 220.817 206.741 217.211 206.156 213.636C205.571 210.064 204.305 207.042 202.355 204.572C200.406 202.106 197.352 200.869 193.195 200.869C189.035 200.869 185.984 202.106 184.034 204.572C182.086 207.042 180.818 210.064 180.233 213.636C179.649 217.211 179.357 220.817 179.357 224.453V293.645C179.357 297.025 179.713 300.467 180.429 303.975C181.142 307.483 182.476 310.474 184.424 312.941C186.373 315.41 189.297 316.645 193.195 316.645Z" fill="#263238" stroke="#263238" stroke-width="0.93" stroke-miterlimit="10" stroke-linecap="round" stroke-linejoin="round"/>
<path d="M298.644 337.5V298.713H251.477V275.714L292.602 179.625H323.981V277.274H340.159V298.713H323.981V337.5H298.644ZM274.085 277.274H298.644V208.667L274.085 277.274Z" fill="#263238" stroke="#263238" stroke-width="0.93" stroke-miterlimit="10" stroke-linecap="round" stroke-linejoin="round"/>
<path d="M108.09 337.5V298.713H60.9219V275.714L102.047 179.625H133.427V277.274H149.605V298.713H133.427V337.5H108.09ZM83.5311 277.274H108.09V208.667L83.5311 277.274Z" fill="white" stroke="#263238" stroke-width="0.93" stroke-miterlimit="10" stroke-linecap="round" stroke-linejoin="round"/>
<path d="M204.953 339.838C195.725 339.838 188.094 337.889 182.051 333.991C176.009 330.093 171.46 324.702 168.408 317.814C165.353 310.928 163.828 303.001 163.828 294.036V224.063C163.828 214.839 165.29 206.749 168.214 199.798C171.138 192.848 175.621 187.421 181.663 183.523C187.705 179.624 195.468 177.676 204.954 177.676C214.438 177.676 222.203 179.624 228.246 183.523C234.288 187.421 238.771 192.848 241.694 199.798C244.618 206.749 246.08 214.839 246.08 224.063V294.035C246.08 303 244.551 310.928 241.5 317.813C238.446 324.702 233.899 330.092 227.856 333.99C221.813 337.889 214.177 339.838 204.953 339.838ZM204.953 316.645C208.979 316.645 211.97 315.411 213.919 312.941C215.868 310.474 217.165 307.483 217.816 303.975C218.466 300.467 218.791 297.025 218.791 293.645V224.453C218.791 220.817 218.499 217.211 217.914 213.636C217.329 210.064 216.063 207.042 214.113 204.572C212.164 202.106 209.11 200.869 204.953 200.869C200.793 200.869 197.742 202.106 195.792 204.572C193.843 207.042 192.576 210.064 191.991 213.636C191.406 217.211 191.114 220.817 191.114 224.453V293.645C191.114 297.025 191.471 300.467 192.187 303.975C192.899 307.483 194.234 310.474 196.182 312.941C198.131 315.41 201.055 316.645 204.953 316.645Z" fill="white" stroke="#263238" stroke-width="0.93" stroke-miterlimit="10" stroke-linecap="round" stroke-linejoin="round"/>
<path d="M310.402 337.5V298.713H263.234V275.714L304.36 179.625H335.739V277.274H351.916V298.713H335.739V337.5H310.402ZM285.843 277.274H310.402V208.667L285.843 277.274Z" fill="white" stroke="#263238" stroke-width="0.93" stroke-miterlimit="10" stroke-linecap="round" stroke-linejoin="round"/>
<path d="M100.916 171.998C98.7256 171.998 96.9818 171.59 95.6826 170.776C94.3843 169.961 93.4543 168.789 92.8945 167.262C92.3346 165.734 92.0547 163.926 92.0547 161.838V150.266C92.0547 148.178 92.3346 146.388 92.8945 144.899C93.4543 143.41 94.3843 142.27 95.6826 141.481C96.9818 140.692 98.7246 140.297 100.916 140.297C103.156 140.297 104.919 140.692 106.206 141.481C107.491 142.27 108.421 143.41 108.994 144.899C109.567 146.389 109.853 148.179 109.853 150.266V161.878C109.853 163.94 109.567 165.73 108.994 167.244C108.421 168.76 107.491 169.93 106.206 170.758C104.919 171.584 103.156 171.998 100.916 171.998ZM100.916 167.834C101.858 167.834 102.552 167.631 102.998 167.223C103.443 166.816 103.743 166.256 103.895 165.543C104.048 164.83 104.124 164.053 104.124 163.213V148.965C104.124 148.101 104.048 147.323 103.895 146.636C103.743 145.948 103.443 145.408 102.998 145.013C102.553 144.619 101.858 144.421 100.916 144.421C100.024 144.421 99.3496 144.618 98.8911 145.013C98.4326 145.408 98.1276 145.948 97.9741 146.636C97.8207 147.323 97.7454 148.101 97.7454 148.965V163.213C97.7454 164.054 97.8151 164.83 97.9555 165.543C98.095 166.256 98.3945 166.816 98.853 167.223C99.3115 167.631 99.9987 167.834 100.916 167.834Z" fill="#263238"/>
<path d="M122.424 171.998C120.233 171.998 118.49 171.59 117.19 170.776C115.892 169.961 114.962 168.789 114.402 167.262C113.842 165.734 113.562 163.926 113.562 161.838V150.266C113.562 148.178 113.842 146.388 114.402 144.899C114.962 143.41 115.892 142.27 117.19 141.481C118.489 140.692 120.232 140.297 122.424 140.297C124.664 140.297 126.427 140.692 127.714 141.481C129 142.27 129.93 143.41 130.502 144.899C131.075 146.389 131.362 148.179 131.362 150.266V161.878C131.362 163.94 131.075 165.73 130.502 167.244C129.93 168.76 129 169.93 127.714 170.758C126.427 171.584 124.664 171.998 122.424 171.998ZM122.424 167.834C123.366 167.834 124.059 167.631 124.506 167.223C124.951 166.816 125.251 166.256 125.403 165.543C125.556 164.83 125.632 164.053 125.632 163.213V148.965C125.632 148.101 125.556 147.323 125.403 146.636C125.251 145.948 124.951 145.408 124.506 145.013C124.059 144.619 123.366 144.421 122.424 144.421C121.532 144.421 120.857 144.618 120.399 145.013C119.94 145.408 119.635 145.948 119.482 146.636C119.329 147.323 119.252 148.101 119.252 148.965V163.213C119.252 164.054 119.322 164.83 119.462 165.543C119.602 166.256 119.901 166.816 120.36 167.223C120.819 167.631 121.507 167.834 122.424 167.834Z" fill="#263238"/>
<path d="M135.516 171.575V140.637H144.606C146.465 140.637 147.974 140.981 149.133 141.668C150.291 142.355 151.144 143.355 151.692 144.666C152.24 145.979 152.513 147.563 152.513 149.421C152.513 151.433 152.169 153.057 151.482 154.291C150.795 155.527 149.833 156.423 148.598 156.983C147.363 157.544 145.906 157.824 144.225 157.824H141.169V171.574H135.516V171.575ZM141.168 153.853H143.307C144.326 153.853 145.122 153.707 145.694 153.414C146.267 153.122 146.662 152.65 146.878 152C147.094 151.351 147.203 150.479 147.203 149.384C147.203 148.265 147.12 147.354 146.955 146.654C146.789 145.954 146.433 145.438 145.885 145.107C145.337 144.776 144.478 144.611 143.307 144.611H141.168V153.853Z" fill="#263238"/>
<path d="M163.29 171.998C161.431 171.998 159.877 171.635 158.63 170.909C157.382 170.183 156.44 169.12 155.804 167.72C155.167 166.319 154.811 164.601 154.734 162.564L159.585 161.609C159.636 162.806 159.782 163.862 160.024 164.779C160.266 165.696 160.635 166.403 161.132 166.899C161.628 167.395 162.283 167.644 163.099 167.644C164.016 167.644 164.665 167.37 165.047 166.822C165.429 166.275 165.62 165.581 165.62 164.741C165.62 163.392 165.315 162.284 164.703 161.418C164.092 160.552 163.277 159.686 162.259 158.821L158.363 155.383C157.268 154.442 156.396 153.391 155.746 152.232C155.097 151.074 154.773 149.642 154.773 147.936C154.773 145.491 155.485 143.608 156.912 142.283C158.337 140.96 160.286 140.297 162.756 140.297C164.207 140.297 165.416 140.52 166.384 140.966C167.352 141.412 168.123 142.029 168.696 142.818C169.268 143.608 169.694 144.505 169.975 145.51C170.255 146.517 170.434 147.58 170.51 148.699L165.697 149.54C165.646 148.573 165.538 147.707 165.373 146.943C165.207 146.178 164.914 145.581 164.494 145.147C164.073 144.714 163.456 144.498 162.641 144.498C161.801 144.498 161.158 144.772 160.712 145.319C160.267 145.867 160.044 146.548 160.044 147.362C160.044 148.406 160.26 149.266 160.693 149.94C161.125 150.615 161.749 151.309 162.564 152.022L166.422 155.421C167.695 156.491 168.784 157.746 169.688 159.184C170.592 160.623 171.044 162.361 171.044 164.398C171.044 165.875 170.719 167.186 170.07 168.332C169.421 169.477 168.517 170.375 167.358 171.025C166.199 171.673 164.843 171.998 163.29 171.998Z" fill="#263238"/>
<path d="M173.562 171.58V166.538H178.604V171.58H173.562ZM175.167 164.323L173.601 140.68H178.795L176.962 164.323H175.167Z" fill="#263238"/>
<path d="M312.656 356.659V363.309H316.121V359.408C316.121 357.698 317.507 356.312 319.217 356.312H330.586C332.296 356.312 333.683 357.698 333.683 359.408V363.309H337.147V356.659C337.147 354.949 335.76 353.562 334.05 353.562H315.753C314.043 353.562 312.656 354.949 312.656 356.659Z" fill="#263238" stroke="#263238" stroke-width="0.93" stroke-miterlimit="10" stroke-linecap="round" stroke-linejoin="round"/>
<path d="M349.169 361.496H283.568C281.153 361.496 279.195 363.454 279.195 365.869V418.596C279.195 420.151 280.455 421.411 282.01 421.411H350.728C352.283 421.411 353.543 420.151 353.543 418.596V365.869C353.542 363.455 351.585 361.496 349.169 361.496Z" fill="#263238" stroke="#263238" stroke-width="0.93" stroke-miterlimit="10" stroke-linecap="round" stroke-linejoin="round"/>
<path d="M358.255 361.496H292.654C290.239 361.496 288.281 363.454 288.281 365.869V418.596C288.281 420.151 289.541 421.411 291.096 421.411H359.814C361.369 421.411 362.629 420.151 362.629 418.596V365.869C362.628 363.455 360.671 361.496 358.255 361.496Z" fill="#8A8A8A" stroke="#263238" stroke-width="0.93" stroke-miterlimit="10" stroke-linecap="round" stroke-linejoin="round"/>
<path d="M381.308 243.809C381.308 243.809 362.61 299.978 360.994 310.146C359.378 320.313 360.417 332.938 361.389 339.325C362.361 345.712 372.316 400.873 372.316 400.873C372.316 400.873 369.852 400.041 369.671 401.824C369.491 403.607 370.112 411.15 370.112 411.15C370.112 411.15 367.53 414.768 360.73 418.706C353.931 422.644 350.625 423.833 352.655 425.119C354.686 426.405 363.367 426.868 366.911 426.341C370.455 425.814 379.989 424.7 381.538 424.442C383.088 424.183 387.78 425.185 389.273 422.482C390.766 419.78 389.685 411.58 390.062 408.681C390.438 405.782 388.329 401.164 388.314 400.497C388.298 399.83 386.436 337.485 386.436 337.485L387.614 322.001C387.614 322.001 387.267 336.747 388.963 338.392C390.66 340.036 408.346 401.583 408.346 401.583L406.631 404.291L408.771 410.243L407.082 414.062C407.082 414.062 399.033 421.587 395.743 423.442C392.452 425.297 389.13 425.82 390.943 427.333C392.757 428.847 410.521 427.986 410.521 427.986L429.106 424.216C429.106 424.216 431.921 421.038 431.414 418.382C430.907 415.726 428.461 406.225 428.461 406.225C428.461 406.225 429.058 393.762 428.381 393.333C427.704 392.905 424.262 388.317 423.998 386.544C423.734 384.772 421.802 349.959 419.759 344.106C417.716 338.253 415.179 329.096 415.179 329.096C415.179 329.096 416.62 327.64 416.714 326.071C416.807 324.502 416.349 321.641 416.349 321.641C416.349 321.641 435.754 271.142 436.643 268.253C437.533 265.363 441.532 249.807 441.532 243.585C441.532 237.362 441.088 232.695 441.088 232.695C441.088 232.695 425.975 239.585 410.642 240.252C395.307 240.918 381.75 240.029 381.75 240.029L381.308 243.809Z" fill="#263238" stroke="#263238" stroke-width="0.93" stroke-miterlimit="10" stroke-linecap="round" stroke-linejoin="round"/>
<path d="M427.758 245.801C427.758 245.801 427.758 260.913 435.314 263.802" stroke="white" stroke-width="0.93" stroke-miterlimit="10" stroke-linecap="round" stroke-linejoin="round"/>
<path d="M438.642 241.359C438.642 241.359 439.086 251.582 437.086 260.694" stroke="white" stroke-width="0.93" stroke-miterlimit="10" stroke-linecap="round" stroke-linejoin="round"/>
<path d="M424.145 287.68C422.075 292.087 420.489 295.508 420.414 295.807" stroke="white" stroke-width="0.93" stroke-miterlimit="10" stroke-linecap="round" stroke-linejoin="round"/>
<path d="M434.192 266.473C434.192 266.473 429.343 276.645 425.398 285.014" stroke="white" stroke-width="0.93" stroke-miterlimit="10" stroke-linecap="round" stroke-linejoin="round"/>
<path d="M389.55 308.101L397.754 272.92L389.086 265.363" stroke="white" stroke-width="0.93" stroke-miterlimit="10" stroke-linecap="round" stroke-linejoin="round"/>
<path d="M387.766 315.739L388.618 312.086" stroke="white" stroke-width="0.93" stroke-miterlimit="10" stroke-linecap="round" stroke-linejoin="round"/>
<path d="M345.102 163.31L322.846 173.002C322.846 173.002 336.127 145.362 336.666 143.747C337.204 142.131 329.307 128.491 329.486 127.953C329.666 127.414 336.486 119.159 336.666 117.364C336.845 115.569 340.615 109.287 337.743 108.929C334.871 108.57 319.615 122.748 319.256 126.338C318.897 129.928 326.077 142.132 326.795 143.209C327.513 144.286 289.822 184.669 289.104 191.13C288.386 197.592 291.437 201.719 296.822 202.437C302.207 203.155 344.563 188.617 351.025 186.823C357.487 185.028 359.64 187.9 359.64 187.9C359.64 187.9 379.921 212.488 381.357 215.539C382.793 218.59 382.075 229.897 380.46 233.308C378.844 236.718 377.049 242.64 377.947 243.538C378.844 244.435 379.504 245.541 382.195 246.259C384.887 246.977 403.612 249.281 414.202 247.666C424.791 246.051 437.355 240.486 440.226 238.333C443.098 236.18 443.457 233.667 443.457 230.436C443.457 227.205 441.303 224.333 439.867 221.102C438.431 217.872 428.919 188.258 424.97 178.745C421.022 169.233 422.278 162.053 407.381 153.618C392.485 145.183 375.012 146.952 375.012 146.952L345.102 163.31Z" fill="#0BCF2A" stroke="#263238" stroke-width="0.93" stroke-miterlimit="10" stroke-linecap="round" stroke-linejoin="round"/>
<path d="M321.951 186.531L321.766 189.328" stroke="#263238" stroke-width="0.93" stroke-miterlimit="10" stroke-linecap="round" stroke-linejoin="round"/>
<path d="M317.102 190.944L322.844 172.996L322.091 184.421" stroke="#263238" stroke-width="0.93" stroke-miterlimit="10" stroke-linecap="round" stroke-linejoin="round"/>
<path d="M316.562 157.023C316.562 157.023 317.46 163.844 326.254 164.203" stroke="#263238" stroke-width="0.93" stroke-miterlimit="10" stroke-linecap="round" stroke-linejoin="round"/>
<path d="M357.664 186.278C357.664 186.278 351.203 181.97 344.562 179.816Z" fill="white"/>
<path d="M357.664 186.278C357.664 186.278 351.203 181.97 344.562 179.816" stroke="#263238" stroke-width="0.93" stroke-miterlimit="10" stroke-linecap="round" stroke-linejoin="round"/>
<path d="M342.599 182.131C341.882 182.011 341.157 181.896 340.43 181.793" stroke="#263238" stroke-width="0.93" stroke-miterlimit="10" stroke-linecap="round" stroke-linejoin="round"/>
<path d="M355.331 185.02C355.331 185.02 350.756 183.681 345.125 182.586" stroke="#263238" stroke-width="0.93" stroke-miterlimit="10" stroke-linecap="round" stroke-linejoin="round"/>
<path d="M388.234 221.688C388.866 222.207 389.315 222.538 389.432 222.538" stroke="#263238" stroke-width="0.93" stroke-miterlimit="10" stroke-linecap="round" stroke-linejoin="round"/>
<path d="M381.359 215.535C381.359 215.535 384.525 218.475 386.899 220.543" stroke="#263238" stroke-width="0.93" stroke-miterlimit="10" stroke-linecap="round" stroke-linejoin="round"/>
<path d="M420.117 246.583L436.091 236.531" stroke="#263238" stroke-width="0.93" stroke-miterlimit="10" stroke-linecap="round" stroke-linejoin="round"/>
<path d="M429.223 207.402C427.421 214.698 423.927 227.127 419.766 233.125" stroke="#263238" stroke-width="0.93" stroke-miterlimit="10" stroke-linecap="round" stroke-linejoin="round"/>
<path d="M430.537 201.715C430.537 201.715 430.31 202.816 429.891 204.626" stroke="#263238" stroke-width="0.93" stroke-miterlimit="10" stroke-linecap="round" stroke-linejoin="round"/>
<path d="M430.532 211.23C430.532 211.23 427.122 226.127 424.43 230.255" stroke="#263238" stroke-width="0.93" stroke-miterlimit="10" stroke-linecap="round" stroke-linejoin="round"/>
<path d="M332.196 153.413C334.545 148.452 336.468 144.337 336.665 143.743C337.203 142.128 329.306 128.487 329.485 127.949C329.665 127.41 336.485 119.155 336.665 117.36C336.844 115.565 340.614 109.283 337.742 108.925C334.87 108.566 319.614 122.744 319.255 126.334C318.896 129.924 326.076 142.128 326.794 143.205C326.945 143.433 325.378 145.42 322.812 148.466C323.81 150.902 326.252 153.991 332.196 153.413Z" fill="white" stroke="#263238" stroke-width="0.93" stroke-miterlimit="10" stroke-linecap="round" stroke-linejoin="round"/>
<path d="M329.072 118.336C329.072 118.336 324.573 127.052 324.739 127.714" stroke="#263238" stroke-width="0.93" stroke-miterlimit="10" stroke-linecap="round" stroke-linejoin="round"/>
<path d="M325.73 118.438C325.73 118.438 320.598 125.721 320.929 126.88" stroke="#263238" stroke-width="0.93" stroke-miterlimit="10" stroke-linecap="round" stroke-linejoin="round"/>
<path d="M364.312 183.587L371.491 198.126L374.901 198.305L377.773 181.971L375.44 178.203L373.825 188.433L369.517 188.254L364.492 180.716L364.312 183.587Z" fill="#8A8A8A" stroke="#263238" stroke-width="0.93" stroke-miterlimit="10" stroke-linecap="round" stroke-linejoin="round"/>
<path d="M371.488 198.125L365.539 241.452L372.419 255.925L379.79 240.886L374.899 198.304L371.488 198.125Z" fill="#8A8A8A" stroke="#263238" stroke-width="0.93" stroke-miterlimit="10" stroke-linecap="round" stroke-linejoin="round"/>
<path d="M370.424 195.964L375.929 192.46L377.634 182.762L374.394 184.824L373.824 188.434L369.516 188.254L369.365 188.026L367.188 189.412L370.424 195.964Z" fill="#263238"/>
<path d="M374.899 198.307L374.907 198.258L374.836 198.304L374.899 198.307Z" fill="#263238"/>
<path d="M376.374 211.086L369.078 215.73L367.781 225.167L377.295 219.111L376.374 211.086Z" fill="#263238"/>
<path d="M375.821 206.289L374.904 198.304L374.842 198.301L371.147 200.653L369.852 210.09L375.821 206.289Z" fill="#263238"/>
<path d="M377.847 223.91L367.006 230.812L365.711 240.248L378.768 231.936L377.847 223.91Z" fill="#263238"/>
<path d="M376.845 246.927L379.805 240.889L379.328 236.734L367.031 244.562L370.175 251.174L376.845 246.927Z" fill="#263238"/>
<path d="M359.28 166.896C359.28 166.896 357.844 175.69 358.023 179.639C358.203 183.588 360.177 190.587 360.177 190.587L368.972 180.536L383.689 189.689C383.689 189.689 383.151 171.023 383.151 170.485C383.151 169.946 379.741 149.845 378.664 147.87C377.587 145.896 374.715 144.819 373.1 145.178C371.484 145.539 359.28 166.896 359.28 166.896Z" fill="#0BCF2A" stroke="#263238" stroke-width="0.93" stroke-miterlimit="10" stroke-linecap="round" stroke-linejoin="round"/>
<path d="M334.48 117.869C334.48 117.869 334.016 131.016 334.325 136.276C334.635 141.536 333.861 145.712 335.253 150.043C336.646 154.374 338.192 162.727 339.584 165.511C340.977 168.295 343.915 170.924 348.246 170.924C352.577 170.924 357.373 167.367 359.693 165.047C362.013 162.727 366.035 159.478 368.201 155.302C370.367 151.126 368.51 140.607 368.819 137.669C369.129 134.73 369.747 129.625 369.747 129.625C369.747 129.625 372.84 122.046 370.366 118.488C367.891 114.93 356.908 110.909 348.555 111.683C340.203 112.455 334.48 117.869 334.48 117.869Z" fill="white" stroke="#263238" stroke-width="0.93" stroke-miterlimit="10" stroke-linecap="round" stroke-linejoin="round"/>
<path d="M341.75 132.719L342.988 137.359C342.988 137.359 339.276 148.187 340.204 148.806C341.132 149.424 348.711 148.652 348.711 148.652" stroke="#263238" stroke-width="0.93" stroke-miterlimit="10" stroke-linecap="round" stroke-linejoin="round"/>
<path d="M347.783 127.923C347.783 127.923 347.628 129.625 348.247 129.934C348.865 130.244 354.898 132.563 355.826 132.254C356.754 131.945 355.517 130.708 354.744 130.398C353.97 130.089 347.473 126.531 347.783 127.923Z" fill="#263238" stroke="#263238" stroke-width="0.93" stroke-miterlimit="10" stroke-linecap="round" stroke-linejoin="round"/>
<path d="M341.752 130.401C341.752 130.401 336.803 133.186 335.875 133.34C334.947 133.495 336.493 131.484 336.493 131.484C336.493 131.484 340.206 127.307 341.134 127.926C342.062 128.546 341.752 130.401 341.752 130.401Z" fill="#263238" stroke="#263238" stroke-width="0.93" stroke-miterlimit="10" stroke-linecap="round" stroke-linejoin="round"/>
<path d="M349.641 136.586C349.641 136.586 352.271 139.37 355.828 137.204" stroke="#263238" stroke-width="0.93" stroke-miterlimit="10" stroke-linecap="round" stroke-linejoin="round"/>
<path d="M336.797 137.823C336.797 137.823 339.272 139.369 341.746 136.895" stroke="#263238" stroke-width="0.93" stroke-miterlimit="10" stroke-linecap="round" stroke-linejoin="round"/>
<path d="M368.824 137.672C369.105 135.008 369.638 130.575 369.736 129.769L366.659 128.082C366.659 128.082 367.587 139.528 366.349 145.87C365.113 152.212 362.947 154.222 360.472 155.151C357.997 156.079 356.759 154.841 356.759 154.841C356.759 154.841 350.882 149.272 345.623 149.118C341.032 148.983 337.503 154.032 336.68 155.318C337.657 159.295 338.658 163.651 339.59 165.514C340.982 168.298 343.921 170.927 348.252 170.927C352.583 170.927 357.378 167.37 359.698 165.05C362.018 162.729 366.04 159.481 368.206 155.305C370.371 151.129 368.515 140.611 368.824 137.672Z" fill="#263238" stroke="#263238" stroke-width="0.93" stroke-miterlimit="10" stroke-linecap="round" stroke-linejoin="round"/>
<path d="M353.048 159.478C353.048 159.478 349.799 154.837 346.706 154.064C343.612 153.291 340.365 159.324 341.447 160.406C342.53 161.489 344.076 157.467 347.016 158.705C349.954 159.942 351.656 161.954 353.048 159.478Z" fill="white" stroke="#263238" stroke-width="0.93" stroke-miterlimit="10" stroke-linecap="round" stroke-linejoin="round"/>
<path d="M334.02 109.671C334.02 109.671 329.379 108.279 326.44 109.826C323.502 111.372 322.109 114.775 322.109 114.775L328.142 115.239L330.927 116.632C330.927 116.632 329.689 116.632 329.07 118.333C328.452 120.035 327.988 122.046 327.988 122.046C327.988 122.046 330.154 120.808 333.557 120.345C336.96 119.881 343.611 117.87 343.611 117.87L344.385 122.975C344.385 122.975 348.252 120.5 351.346 119.572C354.439 118.644 356.295 116.633 356.295 116.633C356.295 116.633 364.339 119.728 364.184 121.119C364.029 122.511 361.245 125.914 362.173 126.996C363.101 128.079 365.576 130.399 365.576 130.399L374.856 135.658C374.856 135.658 378.259 130.399 379.961 122.047C381.663 113.695 373.928 104.723 367.432 102.248C360.936 99.7734 356.14 100.702 352.119 100.856C348.097 101.01 342.528 99.7734 342.528 99.7734L346.241 103.64C346.241 103.64 342.684 105.033 341.136 105.342C339.59 105.652 336.96 106.425 336.341 106.116C335.723 105.806 333.557 104.415 333.557 104.415C333.557 104.415 332.473 109.053 334.02 109.671Z" fill="#263238" stroke="#263238" stroke-width="0.93" stroke-miterlimit="10" stroke-linecap="round" stroke-linejoin="round"/>
<path d="M371.304 144.168C371.304 144.168 373.625 142.93 374.862 141.075C376.099 139.219 379.657 132.103 375.48 130.093C372.316 128.569 370.22 131.304 369.388 132.721C369.2 134.332 368.978 136.253 368.829 137.672C368.519 140.611 370.375 151.129 368.21 155.306C366.045 159.482 362.023 162.731 359.703 165.05C358.812 165.941 357.555 167.013 356.102 167.997L360.012 169.072C360.012 169.072 361.25 172.939 364.653 177.27C368.056 181.601 370.995 184.385 370.995 184.385C370.995 184.385 371.923 178.816 374.397 166.442C376.872 154.067 375.016 146.952 375.016 146.952L371.304 144.168Z" fill="white" stroke="#263238" stroke-width="0.93" stroke-miterlimit="10" stroke-linecap="round" stroke-linejoin="round"/>
<path d="M360.008 169.07L365.421 170.617L362.792 174.484C362.792 174.484 360.627 170.927 360.008 169.07Z" fill="#263238" stroke="#263238" stroke-width="0.93" stroke-miterlimit="10" stroke-linecap="round" stroke-linejoin="round"/>
<path d="M392.672 164.924L397.159 277.099L407.21 277.816C407.21 277.816 415.824 241.561 418.337 229.177C420.85 216.794 421.747 208.896 421.568 199.025C421.388 189.154 419.055 168.693 419.055 168.693C419.055 168.693 413.85 159.899 409.364 156.848" fill="#0BCF2A"/>
<path d="M392.672 164.924L397.159 277.099L407.21 277.816C407.21 277.816 415.824 241.561 418.337 229.177C420.85 216.794 421.747 208.896 421.568 199.025C421.388 189.154 419.055 168.693 419.055 168.693C419.055 168.693 413.85 159.899 409.364 156.848" stroke="#263238" stroke-width="0.93" stroke-miterlimit="10" stroke-linecap="round" stroke-linejoin="round"/>
<path d="M413.078 185.901C414.007 182.969 414.561 181.078 414.561 181.078" stroke="#263238" stroke-width="0.93" stroke-miterlimit="10" stroke-linecap="round" stroke-linejoin="round"/>
<path d="M395.367 229.893C395.367 229.893 399.675 219.843 404.7 208.714C407.437 202.654 410.121 194.994 411.997 189.277" stroke="#263238" stroke-width="0.93" stroke-miterlimit="10" stroke-linecap="round" stroke-linejoin="round"/>
<path d="M407.302 214.699C407.019 215.471 406.747 216.122 406.492 216.613" stroke="#263238" stroke-width="0.93" stroke-miterlimit="10" stroke-linecap="round" stroke-linejoin="round"/>
<path d="M412.596 194.176C412.596 194.176 410.382 204.72 408.297 211.665" stroke="#263238" stroke-width="0.93" stroke-miterlimit="10" stroke-linecap="round" stroke-linejoin="round"/>
<path d="M397.164 267.227L409.189 267.765" stroke="#263238" stroke-width="0.93" stroke-miterlimit="10" stroke-linecap="round" stroke-linejoin="round"/>
<path d="M397.146 277.098C397.146 277.098 395.742 294.414 395.742 295.911C395.742 297.407 396.94 308.334 397.239 309.232C397.538 310.13 405.171 315.818 405.92 315.818C406.669 315.818 410.859 316.267 411.608 315.07C412.357 313.872 412.656 313.124 411.608 312.825C410.56 312.525 407.716 312.675 407.716 312.675L406.07 311.926C406.07 311.926 412.207 311.327 412.656 311.177C413.105 311.028 415.35 309.531 415.799 308.483C416.249 307.435 415.5 306.238 415.5 306.238C415.5 306.238 417.745 304.143 417.895 303.394C418.045 302.646 418.194 300.55 417.146 300.85C416.098 301.149 414.602 302.795 414.602 302.795H410.859C410.859 302.795 414.751 300.251 415.2 299.502C415.649 298.754 416.248 295.61 416.098 294.713C415.948 293.814 414.003 294.863 413.554 295.761C413.104 296.659 412.356 299.054 412.356 299.054L407.866 299.653L406.369 297.707C406.369 297.707 409.363 288.427 409.363 286.481C409.363 284.536 407.196 277.816 407.196 277.816L397.146 277.098Z" fill="white" stroke="#263238" stroke-width="0.93" stroke-miterlimit="10" stroke-linecap="round" stroke-linejoin="round"/>
<path d="M402.633 299.805C402.633 299.805 405.926 302.649 406.824 302.948C407.723 303.248 410.865 302.798 410.865 302.798" stroke="#263238" stroke-width="0.93" stroke-miterlimit="10" stroke-linecap="round" stroke-linejoin="round"/>
<path d="M400.68 303.094C400.68 303.094 405.769 307.584 407.116 307.584C408.463 307.584 415.498 306.237 415.498 306.237" stroke="#263238" stroke-width="0.93" stroke-miterlimit="10" stroke-linecap="round" stroke-linejoin="round"/>
<path d="M399.641 306.988C399.641 306.988 402.634 310.581 403.533 310.879C404.431 311.178 406.077 311.928 406.077 311.928" stroke="#263238" stroke-width="0.93" stroke-miterlimit="10" stroke-linecap="round" stroke-linejoin="round"/>
</svg>
